<svg width="220" height="72" viewBox="0 0 220 72" fill="none" xmlns="http://www.w3.org/2000/svg">
  <rect x="6" y="6" width="208" height="60" rx="18" fill="url(#bg)" stroke="rgba(255,255,255,0.6)" stroke-width="1.5"/>
  <path d="M36 30C36 22.268 42.268 16 50 16H56C63.732 16 70 22.268 70 30V40H36V30Z" fill="#F4D7A5"/>
  <path d="M40 26H66C69.866 26 73 29.134 73 33V40H33V33C33 29.134 36.134 26 40 26Z" fill="#F1C06B"/>
  <rect x="36" y="24" width="38" height="22" rx="8" fill="#C8762A"/>
  <path d="M54 16L62 40H46L54 16Z" fill="#A85F1F"/>
  <path d="M54 13C52.343 13 51 14.343 51 16C51 17.657 52.343 19 54 19C55.657 19 57 17.657 57 16C57 14.343 55.657 13 54 13Z" fill="#F6E6C8"/>
  <rect x="76" y="18" width="110" height="14" rx="7" fill="#FFFFFF" fill-opacity="0.85"/>
  <rect x="76" y="38" width="72" height="10" rx="5" fill="#F4D7A5" fill-opacity="0.9"/>
  <text x="96" y="49" fill="#3D1F0F" font-family="Segoe UI, Arial, sans-serif" font-size="20" font-weight="800">Allgift</text>
  <text x="166" y="49" fill="#C8762A" font-family="Segoe UI, Arial, sans-serif" font-size="20" font-weight="900">4U</text>
  <defs>
    <linearGradient id="bg" x1="6" y1="6" x2="214" y2="66" gradientUnits="userSpaceOnUse">
      <stop stop-color="#FFF9F1"/>
      <stop offset="1" stop-color="#F6E6D0"/>
    </linearGradient>
  </defs>
</svg>
